<svg xmlns="http://www.w3.org/2000/svg" viewBox="0 0 48 48">
  <rect width="48" height="48" rx="8" fill="#1e3a5f"/>
  <circle cx="24" cy="24" r="7" fill="white"/>
  <rect x="21" y="4" width="6" height="10" rx="3" fill="white"/>
  <rect x="21" y="34" width="6" height="10" rx="3" fill="white"/>
  <rect x="4" y="21" width="10" height="6" rx="3" fill="white"/>
  <rect x="34" y="21" width="10" height="6" rx="3" fill="white"/>
  <rect x="8.1" y="10.6" width="6" height="10" rx="3" fill="white" transform="rotate(45 11.1 15.6)"/>
  <rect x="33.9" y="10.6" width="6" height="10" rx="3" fill="white" transform="rotate(-45 36.9 15.6)"/>
  <rect x="8.1" y="27.4" width="6" height="10" rx="3" fill="white" transform="rotate(-45 11.1 32.4)"/>
  <rect x="33.9" y="27.4" width="6" height="10" rx="3" fill="white" transform="rotate(45 36.9 32.4)"/>
  <circle cx="24" cy="24" r="5" fill="#1e3a5f"/>
</svg>
